<?xml version="1.0" encoding="utf-8"?>
<svg version="1.1" id="Layer_1" xmlns="http://www.w3.org/2000/svg" xmlns:xlink="http://www.w3.org/1999/xlink" x="0px" y="0px"
	 viewBox="0 0 800 700" style="enable-background:new 0 0 800 700;" xml:space="preserve">
<style type="text/css">
	.st0{fill:#231F20;}
	.st1{fill:url(#SVGID_1_);}
	.st2{fill:none;stroke:#231F20;stroke-width:80;stroke-miterlimit:10;}
</style>
<g>
	<g>
		<g>
			<g>
				<path class="st0" d="M56.29,505C41.8,505,30,492.89,30,478v-66c0-14.89,11.8-27,26.29-27h687.41c14.5,0,26.29,12.11,26.29,27v66
					c0,14.89-11.79,27-26.29,27H56.29z"/>
				<path class="st0" d="M743.71,400c6.24,0,11.29,5.37,11.29,12v66c0,6.63-5.05,12-11.29,12H56.29C50.06,490,45,484.63,45,478v-66
					c0-6.63,5.06-12,11.29-12H743.71 M743.71,370H56.29C33.52,370,15,388.84,15,412v66c0,23.16,18.52,42,41.29,42h687.41
					c22.77,0,41.29-18.84,41.29-42v-66C785,388.84,766.48,370,743.71,370L743.71,370z"/>
			</g>
			<g>
				<radialGradient id="SVGID_1_" cx="400" cy="250" r="304.3846" gradientUnits="userSpaceOnUse">
					<stop  offset="0" style="stop-color:#8DC2E9"/>
					<stop  offset="1" style="stop-color:#2B75BD"/>
				</radialGradient>
				<path class="st1" d="M60.6,470C43.73,470,30,457.01,30,441.04V58.96C30,42.99,43.73,30,60.6,30h678.79
					C756.27,30,770,42.99,770,58.96v382.08c0,15.97-13.73,28.96-30.61,28.96H60.6z"/>
				<path class="st0" d="M739.39,45c8.62,0,15.61,6.25,15.61,13.96v382.08c0,7.71-6.99,13.96-15.61,13.96H60.6
					c-8.62,0-15.6-6.25-15.6-13.96V58.96C45,51.25,51.99,45,60.6,45H739.39 M739.39,15H60.6C35.46,15,15,34.72,15,58.96v382.08
					C15,465.28,35.46,485,60.6,485h678.79c25.15,0,45.61-19.72,45.61-43.96V58.96C785,34.72,764.54,15,739.39,15L739.39,15z"/>
			</g>
			<line class="st2" x1="398.5" y1="623.07" x2="398.5" y2="516.97"/>-->
			<g>
				<path class="st0" d="M175,645c0,19.33,15.67,35,35,35h380c19.33,0,35-15.67,35-35s-15.67-35-35-35H210
					C190.67,610,175,625.67,175,645C175,645,175,625.67,175,645z"/>
			</g>
			<g>
				<path class="st0" d="M76.89,294.04v-14.5c1.66,1.46,3.65,2.78,5.97,3.96c2.32,1.17,4.76,2.16,7.32,2.97s5.14,1.43,7.73,1.87
					c2.59,0.44,4.98,0.66,7.18,0.66c7.57,0,13.22-1.4,16.96-4.21c3.74-2.81,5.6-6.85,5.6-12.12c0-2.83-0.62-5.3-1.87-7.4
					c-1.25-2.1-2.97-4.02-5.16-5.75c-2.2-1.73-4.8-3.39-7.8-4.98c-3-1.59-6.24-3.26-9.7-5.02c-3.66-1.85-7.08-3.74-10.25-5.64
					c-3.17-1.9-5.93-4-8.28-6.3c-2.34-2.29-4.19-4.89-5.53-7.8c-1.34-2.9-2.01-6.31-2.01-10.22c0-4.78,1.05-8.95,3.15-12.49
					c2.1-3.54,4.86-6.46,8.28-8.75c3.42-2.29,7.31-4,11.68-5.13c4.37-1.12,8.83-1.68,13.37-1.68c10.35,0,17.9,1.25,22.63,3.74v13.84
					c-6.2-4.3-14.16-6.45-23.88-6.45c-2.69,0-5.37,0.28-8.06,0.84c-2.69,0.56-5.08,1.48-7.18,2.75c-2.1,1.27-3.81,2.91-5.13,4.91
					c-1.32,2-1.98,4.44-1.98,7.32c0,2.69,0.5,5.01,1.5,6.96c1,1.95,2.48,3.74,4.43,5.35c1.95,1.61,4.33,3.17,7.14,4.69
					c2.81,1.51,6.04,3.17,9.7,4.98c3.76,1.86,7.32,3.81,10.69,5.86s6.32,4.32,8.86,6.81c2.54,2.49,4.55,5.25,6.04,8.28
					c1.49,3.03,2.23,6.49,2.23,10.4c0,5.18-1.01,9.56-3.04,13.15c-2.03,3.59-4.76,6.51-8.2,8.75c-3.44,2.25-7.41,3.87-11.9,4.87
					c-4.49,1-9.23,1.5-14.21,1.5c-1.66,0-3.71-0.14-6.15-0.4c-2.44-0.27-4.93-0.66-7.47-1.17c-2.54-0.51-4.94-1.15-7.21-1.9
					C80.08,295.81,78.26,294.97,76.89,294.04z"/>
				<path class="st0" d="M171.89,298.29h-12.01V187.25h12.01V298.29z"/>
				<path class="st0" d="M202.36,204.25c-2.15,0-3.98-0.73-5.49-2.2c-1.51-1.46-2.27-3.32-2.27-5.57c0-2.25,0.76-4.11,2.27-5.6
					c1.51-1.49,3.34-2.23,5.49-2.23c2.2,0,4.06,0.75,5.6,2.23c1.54,1.49,2.31,3.36,2.31,5.6c0,2.15-0.77,3.98-2.31,5.49
					C206.42,203.49,204.55,204.25,202.36,204.25z M208.22,298.29H196.2v-75h12.01V298.29z"/>
				<path class="st0" d="M296.55,298.29h-12.01v-12.74h-0.29c-5.57,9.67-14.16,14.5-25.78,14.5c-9.42,0-16.96-3.36-22.6-10.07
					c-5.64-6.71-8.46-15.86-8.46-27.43c0-12.4,3.12-22.34,9.38-29.81c6.25-7.47,14.58-11.21,24.98-11.21
					c10.3,0,17.8,4.05,22.49,12.16h0.29v-46.44h12.01V298.29z M284.53,264.38v-11.06c0-6.05-2-11.18-6.01-15.38
					c-4-4.2-9.08-6.3-15.23-6.3c-7.32,0-13.09,2.69-17.29,8.06c-4.2,5.37-6.3,12.79-6.3,22.27c0,8.64,2.01,15.47,6.04,20.47
					c4.03,5.01,9.44,7.51,16.22,7.51c6.69,0,12.12-2.42,16.3-7.25S284.53,271.75,284.53,264.38z"/>
				<path class="st0" d="M381.14,263.79h-52.95c0.19,8.35,2.44,14.79,6.74,19.34c4.3,4.54,10.2,6.81,17.72,6.81
					c8.45,0,16.21-2.78,23.29-8.35v11.28c-6.59,4.79-15.31,7.18-26.15,7.18c-10.6,0-18.92-3.41-24.98-10.22
					c-6.06-6.81-9.08-16.39-9.08-28.75c0-11.67,3.31-21.18,9.92-28.53c6.62-7.35,14.83-11.02,24.65-11.02s17.41,3.17,22.78,9.52
					c5.37,6.35,8.06,15.16,8.06,26.44V263.79z M368.84,253.61c-0.05-6.93-1.72-12.33-5.02-16.19c-3.3-3.86-7.87-5.79-13.73-5.79
					c-5.67,0-10.47,2.03-14.43,6.08c-3.96,4.05-6.4,9.35-7.32,15.89H368.84z"/>
				<path class="st0" d="M394.76,295.58v-12.89c6.54,4.83,13.74,7.25,21.61,7.25c10.55,0,15.82-3.52,15.82-10.55
					c0-2-0.45-3.7-1.35-5.09c-0.9-1.39-2.13-2.62-3.66-3.7c-1.54-1.07-3.35-2.04-5.42-2.89c-2.08-0.85-4.31-1.75-6.7-2.67
					c-3.32-1.32-6.24-2.65-8.75-3.99c-2.51-1.34-4.61-2.86-6.3-4.54c-1.68-1.68-2.95-3.6-3.81-5.75c-0.85-2.15-1.28-4.66-1.28-7.54
					c0-3.52,0.81-6.63,2.42-9.34s3.76-4.98,6.45-6.81c2.68-1.83,5.75-3.21,9.19-4.14c3.44-0.93,6.99-1.39,10.66-1.39
					c6.49,0,12.3,1.12,17.43,3.37v12.16c-5.52-3.61-11.87-5.42-19.04-5.42c-2.25,0-4.27,0.26-6.08,0.77
					c-1.81,0.51-3.36,1.23-4.65,2.16c-1.29,0.93-2.29,2.04-3,3.33c-0.71,1.29-1.06,2.72-1.06,4.28c0,1.95,0.35,3.59,1.06,4.91
					c0.71,1.32,1.75,2.49,3.11,3.52c1.37,1.03,3.03,1.95,4.98,2.78c1.95,0.83,4.17,1.73,6.67,2.71c3.32,1.27,6.3,2.58,8.94,3.92
					c2.64,1.34,4.88,2.86,6.74,4.54c1.86,1.68,3.28,3.63,4.29,5.82c1,2.2,1.5,4.81,1.5,7.84c0,3.71-0.82,6.93-2.45,9.67
					c-1.64,2.74-3.82,5.01-6.55,6.81c-2.74,1.81-5.88,3.15-9.45,4.03c-3.56,0.88-7.3,1.32-11.21,1.32
					C407.12,300.05,400.43,298.56,394.76,295.58z"/>
				<path class="st0" d="M525.21,298.29H513.2v-43.21c0-15.62-5.81-23.44-17.43-23.44c-5.86,0-10.79,2.26-14.79,6.77
					c-4,4.52-6.01,10.32-6.01,17.4v42.48h-12.01V187.25h12.01v48.49h0.29c5.76-9.47,13.96-14.21,24.61-14.21
					c16.89,0,25.34,10.18,25.34,30.54V298.29z"/>
				<path class="st0" d="M579.19,300.05c-11.08,0-19.93-3.5-26.55-10.51c-6.62-7.01-9.92-16.3-9.92-27.87
					c0-12.6,3.44-22.44,10.33-29.52c6.88-7.08,16.19-10.62,27.91-10.62c11.18,0,19.91,3.44,26.18,10.33s9.41,16.43,9.41,28.64
					c0,11.96-3.38,21.55-10.14,28.75C599.63,296.45,590.56,300.05,579.19,300.05z M580.07,231.64c-7.72,0-13.82,2.63-18.31,7.87
					c-4.49,5.25-6.74,12.49-6.74,21.72c0,8.89,2.27,15.89,6.81,21.02s10.62,7.69,18.24,7.69c7.76,0,13.73-2.51,17.91-7.54
					c4.17-5.03,6.26-12.18,6.26-21.46c0-9.38-2.09-16.6-6.26-21.68C593.8,234.18,587.83,231.64,580.07,231.64z"/>
				<path class="st0" d="M730.21,223.29l-22.49,75h-12.45l-15.45-53.69c-0.59-2.05-0.98-4.37-1.17-6.96h-0.29
					c-0.15,1.76-0.66,4.03-1.54,6.81l-16.77,53.83h-12.01l-22.71-75h12.6l15.53,56.4c0.49,1.71,0.83,3.96,1.03,6.74h0.59
					c0.15-2.15,0.59-4.44,1.32-6.88l17.29-56.25h10.99l15.53,56.54c0.49,1.81,0.85,4.05,1.1,6.74h0.59c0.1-1.9,0.51-4.15,1.25-6.74
					l15.23-56.54H730.21z"/>
			</g>
		</g>
	</g>
</g>
<g>
</g>
<g>
</g>
<g>
</g>
<g>
</g>
<g>
</g>
<g>
</g>
</svg>
