<?xml version="1.0" encoding="utf-8"?>
<svg version="1.1" id="Layer_1" xmlns="http://www.w3.org/2000/svg" xmlns:xlink="http://www.w3.org/1999/xlink" x="0px" y="0px" viewBox="0 0 103 37" style="enable-background:new 0 0 103 37;" xml:space="preserve"><style type="text/css">.st0{fill:url(#SVGID_1_);} .st2{fill:#FFFFFF;} .st3{fill:#dadada;}</style><g><linearGradient id="SVGID_1_" gradientUnits="userSpaceOnUse" x1="-14.0323" y1="0.3317" x2="24.5615" y2="15.7154"><stop offset="0.4888" style="stop-color:#A9AAAA"/><stop offset="0.6878" style="stop-color:#888989"/><stop offset="0.878" style="stop-color:#6D6E6E"/></linearGradient><path class="st0" d="M8.34,11.44l15.05-3.62l-0.03-5.64c0-0.69-0.56-1.11-1.25-0.94L2.74,5.9C2.05,6.06,1.5,6.75,1.5,7.44l0.06,12.17c0,0.69,0.56,1.11,1.25,0.94l4.33-1.04L7.1,12.99C7.1,12.3,7.65,11.61,8.34,11.44z"/><linearGradient id="SVGID_A" gradientUnits="userSpaceOnUse" x1="6.404" y1="11.8048" x2="31.1667" y2="21.6428"><stop offset="0.1037" style="stop-color:#7F7F7F"/><stop offset="0.8403" style="stop-color:#2D2D2D"/></linearGradient><path style="fill:url(#SVGID_A);" d="M13.85,16.9l15.15-3.65l-0.03-5.53c0-0.69-0.56-1.11-1.25-0.94L8.34,11.44C7.65,11.61,7.1,12.3,7.1,12.99l0.06,12.17c0,0.69,0.56,1.11,1.25,0.94l4.23-1.02l-0.03-6.64C12.61,17.75,13.16,17.06,13.85,16.9z"/><path class="st2" d="M4.3,12.49c-0.31,0-0.56-0.25-0.56-0.56L3.72,7.96l3.79-0.91c0.3-0.07,0.6,0.11,0.68,0.41c0.07,0.3-0.11,0.6-0.41,0.68L4.84,8.84l0.02,3.09C4.86,12.24,4.6,12.5,4.3,12.49z"/><g><path class="st3" d="M26.44,28.54l-5.73,1.38v0.86c0,0.12,0.1,0.25,0.22,0.22l5.29-1.38c0.12-0.03,0.22-0.1,0.22-0.22V28.54z"/></g><path class="st3" d="M30.73,21.81c0-0.59,0.5-1.07,1.78-1.07c0.83,0,1.73,0.24,2.6,0.74l0.67-1.65C34.92,19.28,33.71,19,32.53,19c-2.67,0-3.96,1.33-3.96,2.93c0,3.49,5.46,2.28,5.46,4.04c0,0.58-0.52,1.01-1.81,1.01c-1.13,0-2.31-0.4-3.1-0.98l-0.74,1.64c0.83,0.64,2.33,1.09,3.82,1.09c2.68,0,3.99-1.34,3.99-2.91C36.19,22.35,30.73,23.55,30.73,21.81z"/><g><path class="st3" d="M37.54,18.59h2.09v9.96h-2.09V18.59z"/></g><g><path class="st3" d="M41.32,19.16c0-0.66,0.52-1.17,1.3-1.17c0.78,0,1.3,0.48,1.3,1.13c0,0.7-0.52,1.21-1.3,1.21C41.85,20.32,41.32,19.81,41.32,19.16z M41.58,21.33h2.09v7.22h-2.09V21.33z"/></g><g><path class="st3" d="M52.98,18.59v9.96h-2v-0.83c-0.52,0.63-1.29,0.94-2.25,0.94c-2.04,0-3.61-1.45-3.61-3.72s1.57-3.72,3.61-3.72c0.89,0,1.64,0.28,2.16,0.87v-3.5H52.98z M50.92,24.94c0-1.25-0.81-2-1.84-2c-1.05,0-1.85,0.75-1.85,2c0,1.25,0.81,2,1.85,2C50.12,26.94,50.92,26.19,50.92,24.94z"/></g><g><path class="st3" d="M61.94,25.53h-5.46c0.2,0.9,0.97,1.45,2.07,1.45c0.76,0,1.32-0.23,1.81-0.7l1.11,1.21c-0.67,0.76-1.68,1.17-2.98,1.17c-2.5,0-4.12-1.57-4.12-3.72c0-2.16,1.65-3.72,3.85-3.72c2.12,0,3.76,1.42,3.76,3.74C61.98,25.13,61.96,25.36,61.94,25.53z M56.46,24.31h3.56c-0.15-0.91-0.83-1.5-1.77-1.5C57.29,22.81,56.6,23.38,56.46,24.31z"/></g><g><path class="st3" d="M62.79,27.62l0.74-1.64c0.79,0.58,1.97,0.98,3.1,0.98c1.29,0,1.81-0.43,1.81-1.01c0-1.76-5.46-0.55-5.46-4.04c0-1.6,1.29-2.93,3.96-2.93c1.18,0,2.39,0.28,3.26,0.83l-0.67,1.65c-0.87-0.5-1.77-0.74-2.6-0.74c-1.29,0-1.78,0.48-1.78,1.07c0,1.73,5.46,0.54,5.46,3.99c0,1.57-1.3,2.91-3.99,2.91C65.13,28.71,63.63,28.27,62.79,27.62z"/></g><g><path class="st3" d="M79.33,24.42v4.13h-2.09v-3.81c0-1.17-0.54-1.7-1.46-1.7c-1.01,0-1.73,0.62-1.73,1.95v3.57h-2.09v-9.96h2.09v3.49c0.56-0.56,1.37-0.86,2.29-0.86C78.04,21.22,79.33,22.22,79.33,24.42z"/></g><g><path class="st3" d="M80.77,24.94c0-2.17,1.68-3.72,3.97-3.72c2.29,0,3.96,1.54,3.96,3.72s-1.66,3.72-3.96,3.72C82.45,28.66,80.77,27.11,80.77,24.94z M86.58,24.94c0-1.25-0.79-2-1.84-2c-1.05,0-1.85,0.75-1.85,2c0,1.25,0.81,2,1.85,2C85.79,26.94,86.58,26.19,86.58,24.94z"/></g><g><path class="st3" d="M101.5,21.33l-2.62,7.22h-2.01l-1.62-4.48l-1.68,4.48h-2.01l-2.6-7.22h1.97l1.7,4.88l1.77-4.88h1.77l1.72,4.88l1.76-4.88H101.5z"/></g><g><path class="st3" d="M27.85,31.84h1.65c1.26,0,2.12,0.8,2.12,1.96c0,1.16-0.86,1.96-2.12,1.96h-1.65V31.84z M29.47,35.27c0.97,0,1.59-0.59,1.59-1.47c0-0.88-0.62-1.47-1.59-1.47h-1.06v2.95H29.47z"/><path class="st3" d="M32.47,31.84h0.56v3.92h-0.56V31.84z"/><path class="st3" d="M36.92,33.78h0.54v1.53c-0.39,0.33-0.94,0.5-1.48,0.5c-1.2,0-2.09-0.85-2.09-2.01c0-1.16,0.89-2.01,2.1-2.01c0.62,0,1.15,0.21,1.51,0.61l-0.35,0.35c-0.33-0.31-0.69-0.45-1.14-0.45c-0.91,0-1.56,0.63-1.56,1.51c0,0.86,0.66,1.51,1.56,1.51c0.33,0,0.64-0.07,0.92-0.25V33.78z"/><path class="st3" d="M38.53,31.84h0.56v3.92h-0.56V31.84z"/><path class="st3" d="M41.04,32.32h-1.34v-0.49h3.24v0.49h-1.34v3.43h-0.55V32.32z"/><path class="st3" d="M45.85,34.78h-2.08l-0.43,0.98h-0.58l1.78-3.92h0.55l1.78,3.92h-0.59L45.85,34.78z M45.65,34.33l-0.85-1.92l-0.85,1.92H45.65z"/><path class="st3" d="M47.44,31.84H48v3.43h2.12v0.49h-2.68V31.84z"/><path class="st3" d="M51.91,35.31l0.21-0.44c0.29,0.26,0.79,0.45,1.29,0.45c0.68,0,0.97-0.26,0.97-0.6c0-0.96-2.37-0.35-2.37-1.81c0-0.6,0.47-1.12,1.5-1.12c0.46,0,0.93,0.12,1.26,0.35l-0.18,0.45c-0.34-0.22-0.73-0.32-1.08-0.32c-0.67,0-0.95,0.28-0.95,0.62c0,0.96,2.37,0.36,2.37,1.8c0,0.6-0.48,1.11-1.52,1.11C52.81,35.8,52.23,35.6,51.91,35.31z"/><path class="st3" d="M55.74,31.84h0.56v3.92h-0.56V31.84z"/><path class="st3" d="M60.19,33.78h0.54v1.53c-0.39,0.33-0.93,0.5-1.48,0.5c-1.2,0-2.09-0.85-2.09-2.01c0-1.16,0.88-2.01,2.1-2.01c0.62,0,1.15,0.21,1.51,0.61l-0.35,0.35c-0.32-0.31-0.69-0.45-1.14-0.45c-0.91,0-1.56,0.63-1.56,1.51c0,0.86,0.66,1.51,1.56,1.51c0.33,0,0.64-0.07,0.92-0.25V33.78z"/><path class="st3" d="M65.17,31.84v3.92h-0.46l-2.35-2.92v2.92H61.8v-3.92h0.46l2.35,2.92v-2.92H65.17z"/><path class="st3" d="M68.84,34.78h-2.08l-0.43,0.98h-0.58l1.78-3.92h0.55l1.78,3.92h-0.59L68.84,34.78z M68.64,34.33l-0.85-1.92l-0.85,1.92H68.64z"/><path class="st3" d="M73.1,33.78h0.54v1.53c-0.39,0.33-0.93,0.5-1.48,0.5c-1.2,0-2.09-0.85-2.09-2.01c0-1.16,0.88-2.01,2.1-2.01c0.62,0,1.15,0.21,1.51,0.61l-0.35,0.35c-0.32-0.31-0.69-0.45-1.14-0.45c-0.91,0-1.56,0.63-1.56,1.51c0,0.86,0.66,1.51,1.56,1.51c0.33,0,0.64-0.07,0.92-0.25V33.78z"/><path class="st3" d="M77.54,35.27v0.49H74.7v-3.92h2.77v0.49h-2.21v1.2h1.97V34h-1.97v1.27H77.54z"/><path class="st3" d="M79.59,35.31l0.21-0.44c0.29,0.26,0.79,0.45,1.29,0.45c0.68,0,0.97-0.26,0.97-0.6c0-0.96-2.37-0.35-2.37-1.81c0-0.6,0.47-1.12,1.5-1.12c0.46,0,0.94,0.12,1.26,0.35l-0.19,0.45c-0.34-0.22-0.73-0.32-1.08-0.32c-0.67,0-0.95,0.28-0.95,0.62c0,0.96,2.37,0.36,2.37,1.8c0,0.6-0.48,1.11-1.52,1.11C80.5,35.8,79.91,35.6,79.59,35.31z"/><path class="st3" d="M84.84,34.4v1.35h-0.55v-1.37l-1.56-2.55h0.6l1.25,2.07l1.26-2.07h0.56L84.84,34.4z"/><path class="st3" d="M86.52,35.31l0.21-0.44c0.29,0.26,0.79,0.45,1.29,0.45c0.68,0,0.97-0.26,0.97-0.6c0-0.96-2.37-0.35-2.37-1.81c0-0.6,0.47-1.12,1.5-1.12c0.46,0,0.93,0.12,1.26,0.35l-0.18,0.45c-0.34-0.22-0.73-0.32-1.08-0.32c-0.67,0-0.95,0.28-0.95,0.62c0,0.96,2.37,0.36,2.37,1.8c0,0.6-0.48,1.11-1.52,1.11C87.42,35.8,86.83,35.6,86.52,35.31z"/><path class="st3" d="M91.07,32.32h-1.34v-0.49h3.24v0.49h-1.34v3.43h-0.55V32.32z"/><path class="st3" d="M96.42,35.27v0.49h-2.85v-3.92h2.77v0.49h-2.21v1.2h1.97V34h-1.97v1.27H96.42z"/><path class="st3" d="M100.96,35.76l-0.01-2.86l-1.42,2.38h-0.26l-1.42-2.36v2.84h-0.54v-3.92h0.46l1.64,2.76l1.61-2.76h0.46l0.01,3.92H100.96z"/></g><path class="st2" d="M9.9,18.04c-0.31,0-0.56-0.25-0.56-0.56l-0.02-3.98l3.79-0.91c0.3-0.07,0.6,0.11,0.68,0.41c0.07,0.3-0.11,0.6-0.41,0.68l-2.93,0.71l0.02,3.09C10.46,17.79,10.19,18.09,9.9,18.04z"/><linearGradient id="SVGID_B" gradientUnits="userSpaceOnUse" x1="9.0167" y1="15.9586" x2="38.9707" y2="28.1638"><stop offset="0.2749" style="stop-color:#2451FF"/><stop offset="0.9058" style="stop-color:#323471"/></linearGradient><path style="fill:url(#SVGID_B);" d="M26.85,26.93l0.74-1.64c0.1-0.21,0.24-0.4,0.41-0.56c-0.65-0.64-1.11-1.54-1.11-2.82c0-2.29,1.74-4.6,5.64-4.6c0.68,0,1.34,0.09,1.97,0.23l-0.02-4.37c0-0.69-0.56-1.11-1.25-0.94L13.85,16.9c-0.69,0.17-1.24,0.86-1.24,1.54l0.06,12.17c0,0.69,0.56,1.11,1.25,0.94l13-3.13C26.68,27.97,26.63,27.42,26.85,26.93z"/><path class="st2" d="M15.41,23.49c-0.31,0-0.56-0.25-0.56-0.56l-0.02-3.98l3.79-0.91c0.3-0.07,0.6,0.11,0.68,0.41c0.07,0.3-0.11,0.6-0.41,0.68l-2.93,0.71l0.02,3.09C15.97,23.24,15.72,23.49,15.41,23.49C15.41,23.49,15.41,23.49,15.41,23.49z"/></g><g></g><g></g><g></g><g></g><g></g><g></g></svg>
