<?xml version="1.0" encoding="utf-8"?>
<svg version="1.1" id="Layer_1" xmlns="http://www.w3.org/2000/svg" xmlns:xlink="http://www.w3.org/1999/xlink" x="0px" y="0px" viewBox="0 0 75 69" style="enable-background:new 0 0 75 69;" xml:space="preserve"><style type="text/css">.st0{fill:#2D2D2D;} .st1{fill:url(#SVGID_1_);} .st4{fill:#FFFFFF;}</style><g><g><g><path class="st0" d="M55.62,60.63l-12.33,2.97v1.84c0,0.27,0.22,0.54,0.48,0.48l11.37-2.97c0.27-0.06,0.48-0.22,0.48-0.48V60.63z"/></g><linearGradient id="SVGID_1_" gradientUnits="userSpaceOnUse" x1="18.1371" y1="33.5689" x2="82.5696" y2="59.8229"><stop offset="0.2749" style="stop-color:#2451FF"/><stop offset="0.9058" style="stop-color:#323471"/></linearGradient><path class="st1" d="M73.03,53.75L72.9,27.58c-0.01-1.48-1.21-2.39-2.68-2.03L28.53,35.59c-1.48,0.36-2.66,1.84-2.66,3.32L26,65.07c0.01,1.48,1.21,2.39,2.68,2.03l41.69-10.04C71.85,56.71,73.04,55.23,73.03,53.75z"/><linearGradient id="SVGID_B" gradientUnits="userSpaceOnUse" x1="12.5169" y1="24.6339" x2="65.7827" y2="45.796"><stop offset="0.1037" style="stop-color:#7F7F7F"/><stop offset="0.8403" style="stop-color:#2D2D2D"/></linearGradient><path style="fill:url(#SVGID_B);" d="M28.53,35.59l32.58-7.84l-0.06-11.89			c-0.01-1.48-1.21-2.39-2.68-2.03L16.68,23.86c-1.48,0.36-2.66,1.84-2.66,3.32l0.13,26.17c0.01,1.48,1.21,2.39,2.68,2.03l9.1-2.19L25.87,38.9C25.86,37.43,27.05,35.94,28.53,35.59z"/><linearGradient id="SVGID_A" gradientUnits="userSpaceOnUse" x1="-31.4427" y1="-0.0454" x2="51.5747" y2="33.0458"><stop offset="0.4888" style="stop-color:#A9AAAA"/><stop offset="0.878" style="stop-color:#6D6E6E"/></linearGradient><path style="fill:url(#SVGID_A);" d="M16.68,23.86l32.38-7.8L49,3.93c-0.01-1.48-1.21-2.39-2.68-2.03L4.63,11.93c-1.48,0.36-2.66,1.84-2.66,3.32L2.1,41.42c0.01,1.48,1.21,2.39,2.68,2.03l9.3-2.24l-0.07-14.04C14.01,25.7,15.2,24.21,16.68,23.86z"/><path class="st4" d="M26.95,26.33l-8.16,1.96l0.04,8.56c0,0.66,0.54,1.2,1.2,1.2c0.67,0.02,1.21-0.54,1.2-1.21l-0.03-6.65l6.31-1.52c0.65-0.16,1.04-0.81,0.89-1.45C28.24,26.57,27.59,26.19,26.95,26.33z"/><path class="st4" d="M14.9,14.4l-8.16,1.96l0.04,8.56c0,0.66,0.54,1.2,1.2,1.2c0.7-0.07,1.21-0.54,1.2-1.21l-0.03-6.65l6.31-1.52c0.65-0.16,1.04-0.81,0.89-1.45C16.19,14.64,15.54,14.26,14.9,14.4z"/><path class="st4" d="M40.25,38.94c-0.16-0.64-0.8-1.03-1.45-0.89l-8.16,1.96l0.04,8.56c0,0.66,0.54,1.2,1.2,1.2c0,0,0,0,0.01,0c0.67,0,1.2-0.55,1.2-1.21l-0.03-6.65l6.31-1.52C40.01,40.24,40.4,39.59,40.25,38.94z"/></g></g><g></g><g></g><g></g><g></g><g></g><g></g></svg>
